<svg width="151" height="63" viewBox="0 0 151 63" fill="none" xmlns="http://www.w3.org/2000/svg">
<circle cx="31.0412" cy="31.0413" r="26.8084" fill="black" fill-opacity="0.09"/>
<circle cx="31.0412" cy="31.0413" r="26.5497" stroke="#2869BF" stroke-opacity="0.04" stroke-width="0.517355"/>
<circle cx="31.0413" cy="31.0413" r="16.9316" fill="black" fill-opacity="0.09"/>
<circle cx="31.0413" cy="31.0413" r="16.6729" stroke="#2869BF" stroke-opacity="0.04" stroke-width="0.517355"/>
<path fill-rule="evenodd" clip-rule="evenodd" d="M31.3 0H30.7826V30.7826H0V31.3H30.7826V62.0826H31.3V31.3H62.0826V30.7826H31.3V0Z" fill="#6277A1" fill-opacity="0.1"/>
<path opacity="0.86" d="M41.7764 30.0852L39.8612 29.1023C36.8553 30.6409 32.7527 32.7351 32.7051 32.7527C32.1722 32.9907 31.6135 33.1107 31.0413 33.1107C30.467 33.1107 29.9073 32.9897 29.3723 32.7507C29.3268 32.7341 25.2283 30.6419 22.2214 29.1023L20.3062 30.0852C19.9275 30.2384 19.6595 30.6078 19.6595 31.0413C19.6595 31.4717 19.9233 31.8401 20.2979 31.9963V32.017L30.1007 37.023L30.1101 37.0188C30.3915 37.1616 30.704 37.2496 31.0413 37.2496C31.3786 37.2496 31.6911 37.1616 31.9725 37.0188L31.9818 37.023L41.7847 32.017V31.9963C42.1592 31.8401 42.4231 31.4717 42.4231 31.0413C42.4231 30.6078 42.1551 30.2384 41.7764 30.0852Z" fill="white"/>
<path opacity="0.64" d="M41.7764 36.2935L39.8612 35.3105C36.8553 36.8491 32.7527 38.9434 32.7051 38.961C32.1722 39.199 31.6135 39.319 31.0413 39.319C30.467 39.319 29.9073 39.1979 29.3723 38.9589C29.3268 38.9423 25.2283 36.8502 22.2214 35.3105L20.3062 36.2935C19.9275 36.4466 19.6595 36.816 19.6595 37.2496C19.6595 37.68 19.9233 38.0484 20.2979 38.2046V38.2253L30.1007 43.2312L30.1101 43.2271C30.3915 43.3699 30.704 43.4578 31.0413 43.4578C31.3786 43.4578 31.6911 43.3699 31.9725 43.2271L31.9818 43.2312L41.7847 38.2253V38.2046C42.1592 38.0484 42.4231 37.68 42.4231 37.2496C42.4231 36.816 42.1551 36.4466 41.7764 36.2935Z" fill="white"/>
<path d="M42.4231 24.833C42.4231 24.3995 42.1551 24.0301 41.7764 23.877L31.9891 18.8545H31.9705C31.6901 18.7127 31.3776 18.6248 31.0413 18.6248C30.705 18.6248 30.3925 18.7127 30.1121 18.8545H30.0935L20.3062 23.877C19.9275 24.0301 19.6595 24.3995 19.6595 24.833C19.6595 25.2635 19.9233 25.6318 20.2979 25.7881V25.8088L30.1007 30.8147L30.1101 30.8106C30.3915 30.9534 30.704 31.0413 31.0413 31.0413C31.3786 31.0413 31.6911 30.9534 31.9725 30.8106L31.9818 30.8147L41.7847 25.8088V25.7881C42.1592 25.6318 42.4231 25.2635 42.4231 24.833Z" fill="white"/>
<rect width="62.0826" height="62.0826" fill="white"/>
<path d="M31.6864 38.2583C31.9967 37.7683 32.7116 37.7683 33.0219 38.2583L41.2547 51.256C41.5881 51.7823 41.2099 52.4694 40.5869 52.4694H24.1214C23.4984 52.4694 23.1202 51.7823 23.4536 51.256L31.6864 38.2583Z" fill="#962AEB"/>
<rect x="12.0992" y="29.212" width="39.3243" height="11.8566" rx="2.06942" transform="rotate(-10 12.0992 29.212)" fill="#0A14E2"/>
<circle cx="19.7071" cy="17.3443" r="10.3745" fill="#EC9B3C"/>
<circle cx="43.4203" cy="18.1348" r="5.43426" fill="#58BDF2"/>
<path d="M84.1138 27.2841C84.4345 26.3668 83.7536 25.4074 82.7819 25.4074H80.4071C79.7789 25.4074 79.2263 25.8228 79.0517 26.4262L75.5492 38.5308C75.5333 38.5856 75.4832 38.6232 75.4262 38.6232C75.3692 38.6232 75.3191 38.5856 75.3032 38.5309L71.7893 26.4251C71.6144 25.8222 71.0621 25.4074 70.4343 25.4074H68.0706C67.0988 25.4074 66.418 26.3668 66.7387 27.2841L72.2097 42.933C72.4076 43.4991 72.9418 43.8783 73.5416 43.8783H77.3109C77.9106 43.8783 78.4449 43.4991 78.6428 42.933L84.1138 27.2841Z" fill="#0A14E2"/>
<path d="M86.3755 42.4673C86.3755 43.2466 87.0072 43.8783 87.7865 43.8783H90.0873C90.8666 43.8783 91.4983 43.2466 91.4983 42.4673V26.8184C91.4983 26.0392 90.8666 25.4074 90.0873 25.4074H87.7865C87.0072 25.4074 86.3755 26.0392 86.3755 26.8184V42.4673ZM88.9489 23.0264C90.4761 23.0264 91.7268 21.86 91.7268 20.429C91.7268 19.01 90.4761 17.8435 88.9489 17.8435C87.4337 17.8435 86.1831 19.01 86.1831 20.429C86.1831 21.86 87.4337 23.0264 88.9489 23.0264Z" fill="#0A14E2"/>
<path d="M108.441 30.7677C109.258 30.7173 109.879 29.9716 109.586 29.2069C108.614 26.6768 106.042 25.1669 102.09 25.1669C97.3639 25.1669 94.2493 27.3555 94.2613 30.915C94.2493 33.6809 95.993 35.4726 99.6006 36.1941L102.799 36.8315C104.411 37.1562 105.144 37.7454 105.168 38.6713C105.144 39.7656 103.954 40.5473 102.162 40.5473C100.852 40.5473 99.8572 40.1459 99.2834 39.3652C98.871 38.8041 98.2935 38.2894 97.598 38.326L95.2991 38.4467C94.4749 38.4899 93.847 39.2404 94.1474 40.009C95.1835 42.6607 97.9822 44.2391 102.15 44.2391C106.936 44.2391 110.363 41.7979 110.375 38.1543C110.363 35.4846 108.62 33.8853 105.036 33.1517L101.693 32.4783C99.9734 32.1055 99.336 31.5163 99.348 30.6264C99.336 29.5201 100.587 28.7986 102.174 28.7986C103.361 28.7986 104.227 29.2321 104.748 29.8741C105.188 30.4174 105.781 30.9313 106.479 30.8884L108.441 30.7677Z" fill="#0A14E2"/>
<path d="M112.681 42.4673C112.681 43.2466 113.313 43.8783 114.092 43.8783H116.321C117.1 43.8783 117.732 43.2466 117.732 42.4673V41.0594C117.732 40.9824 117.794 40.9201 117.871 40.9201C117.926 40.9201 117.975 40.9514 117.998 41.0005C118.724 42.5186 120.273 44.1789 123.203 44.1789C127.412 44.1789 130.695 40.8479 130.695 34.6669C130.695 28.3176 127.268 25.1669 123.215 25.1669C120.163 25.1669 118.682 26.9622 117.986 28.4548C117.97 28.4886 117.937 28.51 117.899 28.51C117.847 28.51 117.804 28.4674 117.804 28.4148V20.6615C117.804 19.8822 117.172 19.2505 116.393 19.2505H114.092C113.313 19.2505 112.681 19.8822 112.681 20.6615V42.4673ZM117.696 34.6429C117.696 31.3479 119.091 29.2435 121.58 29.2435C124.117 29.2435 125.464 31.4441 125.464 34.6429C125.464 37.8657 124.093 40.1024 121.58 40.1024C119.115 40.1024 117.696 37.9378 117.696 34.6429Z" fill="#0A14E2"/>
<path d="M141.443 44.2391C147.047 44.2391 150.534 40.403 150.534 34.715C150.534 28.991 147.047 25.1669 141.443 25.1669C135.839 25.1669 132.352 28.991 132.352 34.715C132.352 40.403 135.839 44.2391 141.443 44.2391ZM141.467 40.2707C138.882 40.2707 137.559 37.9017 137.559 34.679C137.559 31.4562 138.882 29.0752 141.467 29.0752C144.004 29.0752 145.327 31.4562 145.327 34.679C145.327 37.9017 144.004 40.2707 141.467 40.2707Z" fill="#0A14E2"/>
</svg>
